<svg xmlns="http://www.w3.org/2000/svg" xmlns:xlink="http://www.w3.org/1999/xlink" width="72" height="72" viewBox="0 0 72 72"><defs><path id="zxsxa" d="M120 3319.62a8.7 8.7 0 0 1-17.38 0 8.7 8.7 0 0 1 10.46-8.5 29.63 29.63 0 0 0-13.49-31.78 1.24 1.24 0 1 1 1.3-2.12 32.09 32.09 0 0 1 14.54 34.75 8.7 8.7 0 0 1 4.57 7.65zm-2.49 0a6.21 6.21 0 1 0-12.42.02 6.21 6.21 0 0 0 12.42-.02z"/><path id="zxsxb" d="M97 3332.93c.27.63-.03 1.36-.67 1.62a32.33 32.33 0 0 1-35.45-7.33 8.7 8.7 0 1 1-4.2-16.3 8.7 8.7 0 0 1 6.2 14.8 29.85 29.85 0 0 0 32.5 6.54c.64-.26 1.37.04 1.63.67zm-40.31-7.1a6.21 6.21 0 1 0-.01-12.43 6.21 6.21 0 0 0 .01 12.43z"/><path id="zxsxc" d="M51.81 3302.42a32.12 32.12 0 0 1 23.5-28.76 8.7 8.7 0 0 1 17.38.03 8.7 8.7 0 0 1-17.02 2.45 29.64 29.64 0 0 0-21.38 26.46 1.24 1.24 0 0 1-2.48-.18zm25.98-28.73a6.21 6.21 0 1 0 12.43-.01 6.21 6.21 0 0 0-12.43.01z"/></defs><g><g transform="translate(-48 -3265)"><use fill="#ea6f48" xlink:href="#zxsxa"/></g><g transform="translate(-48 -3265)"><use fill="#ea6f48" xlink:href="#zxsxb"/></g><g transform="translate(-48 -3265)"><use fill="#ea6f48" xlink:href="#zxsxc"/></g></g></svg>