<svg xmlns="http://www.w3.org/2000/svg" xmlns:xlink="http://www.w3.org/1999/xlink" width="12" height="14" viewBox="0 0 12 14"><defs><path id="le1pa" d="M1337.45 57.64V64H1326v-6.36s1.27-1.28 2.55-1.28c2.54 1.28 3.81 1.28 6.36 0 1.27 0 2.54 1.28 2.54 1.28zm-1.27 5.09v-4.5a2.73 2.73 0 0 0-1.05-.55c-2.58 1.21-4.23 1.21-6.81-.01a2.75 2.75 0 0 0-1.05.55v4.5zm-4.45-11.46a1.91 1.91 0 1 0 0 3.83 1.91 1.91 0 0 0 0-3.83zm0-1.27a3.18 3.18 0 1 1 0 6.36 3.18 3.18 0 0 1 0-6.36z"/></defs><g><g transform="translate(-1326 -50)"><use xlink:href="#le1pa"/></g></g></svg>