<svg xmlns="http://www.w3.org/2000/svg" xmlns:xlink="http://www.w3.org/1999/xlink" width="72" height="72" viewBox="0 0 72 72"><defs><path id="5aaua" d="M110.9 3464.9c0 .02-.04.02-.05.04a35.92 35.92 0 0 1-25.6 12.03l-.7.02-.55.01-.55-.01-.7-.02a35.92 35.92 0 0 1-25.58-12l-.08-.07-.01-.04A35.85 35.85 0 0 1 48 3441c0-9.52 3.72-18.18 9.77-24.62l.02-.02a35.9 35.9 0 0 1 24.96-11.33l.7-.02.55-.01.54.01.7.02a35.9 35.9 0 0 1 24.97 11.33l.02.02a35.86 35.86 0 0 1 .7 48.48l-.02.04zm-52.56-2.36a45.77 45.77 0 0 1 10.07-5.13 45.88 45.88 0 0 1-3-15.17h-14.9a33.36 33.36 0 0 0 7.83 20.3zm-7.83-22.78h14.9a45.84 45.84 0 0 1 3.42-16.26 45.66 45.66 0 0 1-9.8-4.82 33.37 33.37 0 0 0-8.52 21.08zm58.47-21.08c-3.09 2.01-6.38 3.62-9.8 4.82 2.1 5.1 3.25 10.6 3.4 16.26h14.9a33.37 33.37 0 0 0-8.5-21.08zm-26.22-10.4c-4.45 3.88-8 8.54-10.52 13.7 3.4.96 6.93 1.5 10.52 1.6zm-11.55 16a43.36 43.36 0 0 0-3.31 15.48h14.86v-13.7c-3.95-.1-7.82-.7-11.55-1.79zm14.03 15.48h14.86a43.36 43.36 0 0 0-3.3-15.49 45.83 45.83 0 0 1-11.56 1.79zm10.52-17.78a43.43 43.43 0 0 0-10.52-13.7v15.3a43.4 43.4 0 0 0 10.52-1.6zm11.46-5.12a33.42 33.42 0 0 0-18.85-9.08c4.1 3.9 7.4 8.45 9.8 13.45 3.15-1.1 6.19-2.55 9.05-4.37zm-27.59-9.08a33.42 33.42 0 0 0-18.85 9.08 43.14 43.14 0 0 0 9.06 4.37c2.38-5 5.7-9.55 9.79-13.45zm-8.86 48.84a45.79 45.79 0 0 1 11.99-1.92v-12.46H67.9a43.35 43.35 0 0 0 2.87 14.38zm.96 2.3a43.41 43.41 0 0 0 11.03 14.8v-16.53c-3.77.1-7.47.69-11.03 1.73zm24.54 0a43.28 43.28 0 0 0-11.03-1.73v16.53a43.4 43.4 0 0 0 11.03-14.8zm.96-2.3a43.34 43.34 0 0 0 2.87-14.38H85.24v12.46c4.1.11 8.13.75 12 1.92zm2.36.79a45.77 45.77 0 0 1 10.07 5.13 33.36 33.36 0 0 0 7.83-20.3h-14.9a45.84 45.84 0 0 1-3 15.17zm-19.96 16.81a45.8 45.8 0 0 1-10.27-14.52 43.26 43.26 0 0 0-9.33 4.7 33.45 33.45 0 0 0 19.6 9.82zm28.34-9.82a43.3 43.3 0 0 0-9.33-4.7 45.78 45.78 0 0 1-10.27 14.52c7.64-1 14.47-4.57 19.6-9.82z"/></defs><g><g transform="translate(-48 -3405)"><use fill="#ea6f48" xlink:href="#5aaua"/></g></g></svg>