<svg xmlns="http://www.w3.org/2000/svg" xmlns:xlink="http://www.w3.org/1999/xlink" width="10" height="12" viewBox="0 0 10 12"><defs><path id="lwo2a" d="M433.58 60.4c.34 0 .99-.67 1.32-.7.34-.03.67.07.92.28l.9.72.53.45c.39.31.45.88.14 1.28l-1 1.41c-.07.1-.2.17-.33.16a9.03 9.03 0 0 1-8.06-9.06c0-.83.1-1.66.32-2.46a.23.23 0 0 1 .17-.15l1.9-.31a.87.87 0 0 1 1.04.7l.17.72.21 1.2c.06.34 0 .69-.18.98-.18.3-1.03.6-1.2.89a6.76 6.76 0 0 0 3.13 4.01v-.12z"/></defs><g><g transform="translate(-428 -52)"><use xlink:href="#lwo2a"/></g></g></svg>