<svg xmlns="http://www.w3.org/2000/svg" xmlns:xlink="http://www.w3.org/1999/xlink" width="30" height="30" viewBox="0 0 30 30"><defs><path id="vi9ma" d="M620.9 447.32a11.5 11.5 0 0 1-.87-4.97c.1-1.19.57-2.22 1.42-3.06l2.33-2.33a3.2 3.2 0 0 1 2.2-.96c.8 0 1.56.33 2.2.96.42.39.85.82 1.26 1.25l.63.64 1.85 1.86a3.16 3.16 0 0 1 1.04 2.23c0 .8-.36 1.57-1.04 2.24l-.57.58c-.53.54-1.07 1.1-1.66 1.62.42.97 1.02 1.91 1.9 3.04a23.55 23.55 0 0 0 5.63 5.12c.2.13.44.25.68.37.2.1.42.2.62.32l2.23-2.22c.65-.65 1.41-1 2.2-1 .8 0 1.56.35 2.2 1l3.73 3.74c1.34 1.34 1.34 3.09.02 4.47-.3.3-.59.6-.88.87-.43.42-.84.8-1.2 1.24 0 .02-.02.03-.03.04A4.9 4.9 0 0 1 643 466l-.42-.01a16.48 16.48 0 0 1-5.93-1.76 31.83 31.83 0 0 1-10.58-8.29 28.93 28.93 0 0 1-5.17-8.62zm1.43-.51a27.7 27.7 0 0 0 4.9 8.17 30.24 30.24 0 0 0 10.08 7.9 14.97 14.97 0 0 0 5.69 1.62c1.1 0 1.95-.36 2.66-1.14.41-.49.87-.92 1.3-1.34.3-.28.57-.55.83-.83.76-.8.76-1.6.02-2.34l-3.75-3.75c-.24-.26-.63-.55-1.1-.55-.39 0-.78.2-1.14.55l-2.32 2.33c-.11.1-.43.42-.93.42-.2 0-.4-.05-.6-.16-.03 0-.05-.02-.07-.03-.2-.13-.44-.25-.69-.38-.26-.13-.55-.27-.82-.44a24.86 24.86 0 0 1-5.99-5.46c-1.04-1.3-1.7-2.4-2.18-3.55l-.02-.05c-.12-.37-.2-.86.31-1.38l.03-.03c.6-.53 1.14-1.08 1.72-1.67l.58-.58c.38-.39.58-.78.58-1.16 0-.39-.2-.78-.58-1.17l-1.86-1.85-.64-.66c-.42-.43-.82-.83-1.23-1.22a1.59 1.59 0 0 0-1.12-.54c-.39 0-.79.18-1.15.53l-2.3 2.31c-.6.6-.92 1.3-1 2.12-.1 1.25.15 2.62.79 4.33z"/></defs><g><g transform="translate(-620 -436)"><use fill="#ea6f48" xlink:href="#vi9ma"/></g></g></svg>