<svg xmlns="http://www.w3.org/2000/svg" xmlns:xlink="http://www.w3.org/1999/xlink" width="23" height="30" viewBox="0 0 23 30"><defs><path id="duiba" d="M182.45 447.23c0 2.55-.83 4.95-2.41 6.95l-8.81 11.07-8.81-11.07a11.24 11.24 0 0 1 8.8-18.18c6.2 0 11.23 5.04 11.23 11.23zm-1.85 0a9.38 9.38 0 0 0-18.75 0c0 2.12.7 4.13 2.02 5.8l7.36 9.25 7.35-9.25a9.26 9.26 0 0 0 2.02-5.8z"/><path id="duibb" d="M175.86 447.09a4.64 4.64 0 1 1-9.28-.01 4.64 4.64 0 0 1 9.28 0zm-1.85 0a2.78 2.78 0 1 0-5.57 0 2.78 2.78 0 0 0 5.57 0z"/></defs><g><g transform="translate(-160 -436)"><use fill="#ea6f48" xlink:href="#duiba"/></g><g transform="translate(-160 -436)"><use fill="#ea6f48" xlink:href="#duibb"/></g></g></svg>