<svg xmlns="http://www.w3.org/2000/svg" xmlns:xlink="http://www.w3.org/1999/xlink" width="72" height="73" viewBox="0 0 72 73"><defs><path id="hmjja" d="M572.13 1692.38a35.68 35.68 0 0 1-48.23 14.83l-8.1 5.38a1.4 1.4 0 0 1-2.17-1.4l1.49-10.61a35.68 35.68 0 0 1 25.57-60.58 35.68 35.68 0 0 1 31.44 52.38zm-8.38-40.09a32.87 32.87 0 0 0-46.16 46.8c.32.32.47.76.41 1.2l-1.22 8.18 6.34-4.12a1.4 1.4 0 0 1 1.4 0 32.88 32.88 0 0 0 39.56-5.58 32.87 32.87 0 0 0-.33-46.48z"/><path id="hmjjb" d="M550.12 1689.62v5.06c0 .78-.63 1.41-1.4 1.41H534a1.4 1.4 0 0 1-1.41-1.4v-5.07c0-.78.63-1.4 1.4-1.4h1.19v-14.32H534a1.4 1.4 0 0 1-1.41-1.41v-5.06c0-.78.63-1.41 1.4-1.41h12.14c.78 0 1.41.63 1.41 1.4v20.8h1.17c.77 0 1.4.62 1.4 1.4zm-2.8 3.66l-.02-2.25h-1.17a1.4 1.4 0 0 1-1.4-1.41v-20.79h-9.32v2.25h1.18c.78 0 1.41.63 1.41 1.41v17.13c0 .78-.63 1.4-1.4 1.4h-1.19v2.26z"/><path id="hmjjc" d="M546.68 1658.2a5.9 5.9 0 1 1-11.79 0 5.9 5.9 0 0 1 11.79 0zm-2.82.02c0-1.7-1.38-3.08-3.08-3.08v-.02h-.01a3.08 3.08 0 1 0 3.1 3.1z"/></defs><g><g transform="translate(-505 -1640)"><use fill="#ea6f48" xlink:href="#hmjja"/></g><g transform="translate(-505 -1640)"><use fill="#ea6f48" xlink:href="#hmjjb"/></g><g transform="translate(-505 -1640)"><use fill="#ea6f48" xlink:href="#hmjjc"/></g></g></svg>