<svg xmlns="http://www.w3.org/2000/svg" xmlns:xlink="http://www.w3.org/1999/xlink" width="73" height="71" viewBox="0 0 73 71"><defs><path id="8srea" d="M102.43 1673.54c0-.74.6-1.34 1.32-1.34a1.33 1.33 0 1 1 0 2.67c-.73 0-1.32-.6-1.32-1.33z"/><path id="8sreb" d="M54.65 1673.54c0-.74.6-1.34 1.32-1.34a1.33 1.33 0 1 1 0 2.67c-.73 0-1.32-.6-1.32-1.33z"/><path id="8srec" d="M58.63 1677.54c0-.74.6-1.34 1.32-1.34a1.33 1.33 0 1 1 0 2.67c-.73 0-1.32-.6-1.32-1.33z"/><path id="8sred" d="M66.59 1677.54c0-.74.6-1.34 1.32-1.34a1.33 1.33 0 1 1 0 2.67c-.73 0-1.32-.6-1.32-1.33z"/><path id="8sree" d="M62.61 1681.54c0-.74.6-1.34 1.32-1.34a1.33 1.33 0 1 1 0 2.67c-.73 0-1.32-.6-1.32-1.33z"/><path id="8sref" d="M70.57 1681.54c0-.74.6-1.34 1.32-1.34a1.33 1.33 0 1 1 0 2.67c-.73 0-1.32-.6-1.32-1.33z"/><path id="8sreg" d="M74.56 1685.54c0-.74.6-1.34 1.32-1.34a1.33 1.33 0 1 1 0 2.67c-.73 0-1.32-.6-1.32-1.33z"/><path id="8sreh" d="M82.52 1685.54c0-.74.6-1.34 1.32-1.34a1.33 1.33 0 1 1 0 2.67c-.73 0-1.32-.6-1.32-1.33z"/><path id="8srei" d="M86.5 1681.54c0-.74.6-1.34 1.32-1.34a1.33 1.33 0 1 1 0 2.67c-.73 0-1.32-.6-1.32-1.33z"/><path id="8srej" d="M78.54 1689.54c0-.74.6-1.34 1.32-1.34a1.33 1.33 0 1 1 0 2.67c-.73 0-1.32-.6-1.32-1.33z"/><path id="8srek" d="M90.48 1677.54c0-.74.6-1.34 1.32-1.34a1.33 1.33 0 1 1 0 2.67c-.73 0-1.32-.6-1.32-1.33z"/><path id="8srel" d="M98.45 1677.54c0-.74.6-1.34 1.32-1.34a1.33 1.33 0 1 1 0 2.67c-.73 0-1.32-.6-1.32-1.33z"/><path id="8srem" d="M94.46 1681.54c0-.74.6-1.34 1.32-1.34a1.33 1.33 0 1 1 0 2.67c-.73 0-1.32-.6-1.32-1.33z"/><path id="8sren" d="M104.22 1682.77l-.1.06 12.82 7.3-36.47 20.94L44 1690.14l12.82-7.31-12.82-7.36 12.82-7.31L44 1660.8l36.47-20.8 36.47 20.8-12.82 7.36 12.82 7.31-12.47 7.16-.25.14zm-54.86-21.96l31.11 17.85 20.97-12.03 10.14-5.82-31.11-17.74zm0 14.67l1.8 1.03c.23-.18.51-.31.83-.31.73 0 1.33.6 1.33 1.33 0 .07-.03.13-.04.2l13.34 7.65a1.32 1.32 0 1 1 2.09 1.2l2.92 1.67c.09-.02.18-.05.27-.05.6 0 1.08.4 1.25.93l7.32 4.2 6.1-3.5c-.03-.1-.07-.2-.07-.3 0-.73.6-1.33 1.33-1.33.36 0 .68.15.92.38l3-1.73c-.7-.03-1.27-.6-1.27-1.32a1.33 1.33 0 0 1 2.65 0c0 .23-.07.44-.17.63l8.48-4.87 5.24-3a1.3 1.3 0 0 1-.27-.76 1.32 1.32 0 1 1 2.53-.55l2.64-1.5-10.14-5.78-.42.24c-.18.53-.66.93-1.25.93-.1 0-.18-.04-.27-.06l-2.92 1.68c.32.24.54.6.54 1.04a1.31 1.31 0 1 1-2.62.15l-13.35 7.66c.01.07.04.13.04.2a1.33 1.33 0 0 1-2.65 0c0-.3.1-.55.26-.76l-13.71-7.87c.1.19.17.4.17.62 0 .74-.59 1.34-1.32 1.34a1.33 1.33 0 0 1-.06-2.66l-3-1.72c-.25.23-.57.38-.92.38-.53 0-.97-.32-1.19-.76zm52.08 8.88l-20.97 12.04-20.98-12.04-10.13 5.78 31.1 17.86 31.11-17.86z"/></defs><g><g transform="translate(-44 -1640)"><use fill="#ea6f48" xlink:href="#8srea"/></g><g transform="translate(-44 -1640)"><use fill="#ea6f48" xlink:href="#8sreb"/></g><g transform="translate(-44 -1640)"><use fill="#ea6f48" xlink:href="#8srec"/></g><g transform="translate(-44 -1640)"><use fill="#ea6f48" xlink:href="#8sred"/></g><g transform="translate(-44 -1640)"><use fill="#ea6f48" xlink:href="#8sree"/></g><g transform="translate(-44 -1640)"><use fill="#ea6f48" xlink:href="#8sref"/></g><g transform="translate(-44 -1640)"><use fill="#ea6f48" xlink:href="#8sreg"/></g><g transform="translate(-44 -1640)"><use fill="#ea6f48" xlink:href="#8sreh"/></g><g transform="translate(-44 -1640)"><use fill="#ea6f48" xlink:href="#8srei"/></g><g transform="translate(-44 -1640)"><use fill="#ea6f48" xlink:href="#8srej"/></g><g transform="translate(-44 -1640)"><use fill="#ea6f48" xlink:href="#8srek"/></g><g transform="translate(-44 -1640)"><use fill="#ea6f48" xlink:href="#8srel"/></g><g transform="translate(-44 -1640)"><use fill="#ea6f48" xlink:href="#8srem"/></g><g transform="translate(-44 -1640)"><use fill="#ea6f48" xlink:href="#8sren"/></g></g></svg>