<svg xmlns="http://www.w3.org/2000/svg" xmlns:xlink="http://www.w3.org/1999/xlink" width="90" height="51" viewBox="0 0 90 51"><defs><path id="lxbpa" d="M1053 1649.1c0 .83-.67 1.5-1.5 1.5h-12.88v5.12h1.69a1.5 1.5 0 0 1 0 3h-1.7v5.13h9.7a1.5 1.5 0 0 1 0 3h-9.7v13.7a3.1 3.1 0 0 1-3.1 3.1h-9.27a8.09 8.09 0 0 1-15.88 0h-19.62a3 3 0 0 1-.95-.17c-.2.1-.42.16-.65.17h-4.38a8.09 8.09 0 0 1-15.88 0h-4.38a1.5 1.5 0 0 1-1.5-1.5v-16.8c0-.83.67-1.5 1.5-1.5h3.66l6.09-10.63a1.5 1.5 0 0 1 1.3-.75h12.1v-9.36a3.1 3.1 0 0 1 3.1-3.11h44.76a3.1 3.1 0 0 1 3.1 3.1v4.5h12.89c.83 0 1.5.68 1.5 1.5zm-81.38 14.75h16.02v-8.32h-11.22zm10.31 18.29a5.1 5.1 0 1 0-10.2 0 5.1 5.1 0 0 0 10.2 0zm5.72-1.5v-13.79H966v13.79h2.88a8.09 8.09 0 0 1 15.88 0zm35.77 1.5a5.1 5.1 0 1 0-10.2 0 5.1 5.1 0 0 0 10.2 0zm12.21-38.98l-44.87-.1-.1 37.5 19.71.09a8.09 8.09 0 0 1 15.89 0h9.28v-13.79h-10.29a1.5 1.5 0 0 1 0-3h10.32v-5.13h-18.31a1.5 1.5 0 0 1 0-3h18.34v-5.07h-7.14a1.5 1.5 0 0 1 0-3h7.17z"/></defs><g><g transform="translate(-963 -1640)"><use fill="#ea6f48" xlink:href="#lxbpa"/></g></g></svg>