<svg xmlns="http://www.w3.org/2000/svg" xmlns:xlink="http://www.w3.org/1999/xlink" width="20" height="12" viewBox="0 0 20 12"><defs><path id="avnxa" d="M1217.22 273.53h-3.25a.73.73 0 0 0-.65.4s-1.29 2.53-1.7 3.38c-1.12 2.28-1.85 1.56-1.85.5v-3.65c0-.64-.49-1.15-1.09-1.15h-2.44a1.92 1.92 0 0 0-1.73.84s1.24-.2 1.24 1.56l.04 2.75c.01.32-.17.6-.45.73a.7.7 0 0 1-.8-.2c-1-1.47-1.83-3.06-2.47-4.74a.68.68 0 0 0-.62-.42h-2.95a.5.5 0 0 0-.4.22.56.56 0 0 0-.07.5c.9 2.59 4.75 10.75 9.16 10.75h1.85c.4 0 .73-.35.73-.77v-1.19c0-.3.17-.57.43-.7a.69.69 0 0 1 .78.15l2.22 2.2c.2.2.46.31.74.31h2.9c1.41 0 1.41-1.03.65-1.83-.54-.56-2.49-2.73-2.49-2.73a1.1 1.1 0 0 1-.07-1.38l2.09-2.92c.6-.84 1.67-2.61.2-2.61z"/></defs><g><g transform="translate(-1198 -273)"><use fill="#474747" xlink:href="#avnxa"/></g></g></svg>