<svg xmlns="http://www.w3.org/2000/svg" xmlns:xlink="http://www.w3.org/1999/xlink" width="22" height="28" viewBox="0 0 22 28"><defs><path id="t4d0a" d="M1267.18 283.72c-.2 0-.35.06-.44.18-.09.11-.13.31-.13.59v.66h1.13v-.66c0-.28-.04-.48-.13-.59-.09-.12-.23-.18-.43-.18z"/><path id="t4d0b" d="M1262.77 283.7a.6.6 0 0 0-.28.06.93.93 0 0 0-.26.2v4.09c.1.1.2.19.3.23.1.05.2.07.31.07.16 0 .27-.04.35-.14.07-.09.11-.24.11-.45v-3.39c0-.22-.04-.39-.14-.5a.49.49 0 0 0-.4-.17z"/><path id="t4d0c" d="M1270.95 284.94s-.01 5.26-1.07 6.32c-1.05 1.06-9.91 1.08-9.91 1.08s-8.86-.02-9.91-1.08c-1.06-1.06-1.06-6.28-1.06-6.32 0-.03 0-5.26 1.06-6.32 1.05-1.06 9.9-1.07 9.9-1.07s8.87.01 9.92 1.07c1.05 1.06 1.06 6.3 1.07 6.32zm-15.2-3.24v-1.29h-4.42v1.3h1.49v7.6h1.44v-7.6zm4.22 1.04h-1.28v4.98c-.12.15-.25.26-.4.36a.72.72 0 0 1-.35.13c-.12 0-.2-.03-.26-.1s-.08-.18-.08-.34v-5.03h-1.28v5.48c0 .4.07.69.22.88.16.2.38.3.67.3.24 0 .49-.07.75-.21.25-.14.5-.34.74-.6v.71h1.27zm4.65 5.2v-3.63c0-.54-.1-.95-.32-1.23a1.1 1.1 0 0 0-.93-.42c-.2 0-.4.05-.6.16-.18.1-.37.25-.54.45v-2.86h-1.3v8.9h1.3v-.51a1.5 1.5 0 0 0 1.22.59c.38 0 .67-.13.87-.38.2-.24.3-.6.3-1.06zm4.44-3.43c0-.62-.16-1.1-.48-1.43-.31-.33-.76-.5-1.35-.5a1.9 1.9 0 0 0-1.4.54c-.36.35-.54.82-.54 1.39v2.94c0 .64.16 1.13.5 1.5.32.35.77.53 1.35.53.64 0 1.12-.17 1.43-.5.33-.35.49-.85.49-1.53v-.33h-1.32v.3c0 .38-.05.63-.13.75-.08.1-.23.16-.44.16-.2 0-.35-.06-.44-.2a1.48 1.48 0 0 1-.12-.71v-1.24h2.45z"/><path id="t4d0d" d="M1267.17 274.8h-1.44v-.8c-.26.29-.54.52-.83.67-.29.15-.56.23-.83.23-.34 0-.59-.1-.76-.32-.17-.22-.25-.54-.25-.97v-6.04h1.44v5.54c0 .17.03.3.1.37.05.08.15.12.29.12.1 0 .24-.06.4-.16.16-.1.3-.23.44-.38v-5.49h1.44v7.23z"/><path id="t4d0e" d="M1261.9 269.26V273c0 .62-.2 1.1-.57 1.45-.37.36-.88.53-1.54.53a2.1 2.1 0 0 1-1.51-.54 1.95 1.95 0 0 1-.57-1.47v-3.74c0-.57.2-1.01.58-1.34.39-.33.91-.5 1.57-.5.6 0 1.08.17 1.46.52.38.35.57.8.57 1.35zm-1.48-.09a.47.47 0 0 0-.17-.38.7.7 0 0 0-.46-.15.63.63 0 0 0-.43.15.5.5 0 0 0-.17.38v3.93c0 .2.05.35.16.46.1.11.25.17.44.17.2 0 .35-.06.46-.17a.6.6 0 0 0 .17-.46z"/><path id="t4d0f" d="M1253.78 265h-1.63l1.93 5.91v3.88h1.62v-4.06l1.9-5.73h-1.66l-1 3.92h-.1z"/></defs><g><g transform="translate(-1249 -265)"><use fill="#474747" xlink:href="#t4d0a"/></g><g transform="translate(-1249 -265)"><use fill="#474747" xlink:href="#t4d0b"/></g><g transform="translate(-1249 -265)"><use fill="#474747" xlink:href="#t4d0c"/></g><g transform="translate(-1249 -265)"><use fill="#474747" xlink:href="#t4d0d"/></g><g transform="translate(-1249 -265)"><use fill="#474747" xlink:href="#t4d0e"/></g><g transform="translate(-1249 -265)"><use fill="#474747" xlink:href="#t4d0f"/></g></g></svg>